<?xml version="1.0" encoding="UTF-8"?><svg id="Capa_1" xmlns="http://www.w3.org/2000/svg" viewBox="0 0 600 600"><defs><style>.cls-1{fill:#fff;}.cls-2{fill:none;}</style></defs><rect class="cls-2" x="-1280" y="-240" width="1920" height="1080"/><g><path class="cls-1" d="M478.59,42.03h49.61c16.44,0,29.77,13.33,29.77,29.77v456.41c0,16.44-13.33,29.77-29.77,29.77H71.8c-16.44,0-29.77-13.33-29.77-29.77V71.8c0-16.44,13.33-29.77,29.77-29.77H240.47c10.96,0,19.84-8.88,19.84-19.84s-8.88-19.85-19.84-19.85H71.8C33.5,2.34,2.34,33.5,2.34,71.8v456.41c0,38.3,31.16,69.45,69.45,69.45h456.4c38.3,0,69.45-31.16,69.45-69.45V71.8c0-38.3-31.16-69.45-69.45-69.45h-49.61c-101.6,0-202.71,58.29-237.03,155.21-4.83,13.33-8.46,27.01-10.73,40.84-.81,4.87,2.11,9.69,6.97,11.14,5.28,1.58,10.84-1.45,12.38-6.74,13.92-48.45,45-92.25,87.12-119.81,41.59-27.93,91.78-40.94,141.29-40.94"/><path class="cls-1" d="M91.45,266.3c0-4.09,1.58-8,4.28-10.98,2.7-2.98,6.61-4.93,11.35-4.93s8.84,1.95,12.37,5.86l51.16,56.93v-47.44c0-4.37,1.77-8.19,4.74-10.97,2.89-2.79,6.79-4.37,11.16-4.37s8.19,1.58,10.98,4.37c2.79,2.79,4.46,6.6,4.46,10.97v88.27c0,4.19-1.58,8.09-4.37,10.88-2.79,2.79-6.79,4.56-11.53,4.56h-1.02c-4.09-.37-7.16-2.33-9.86-5.96l-52.37-58.04v48.56c0,4.37-1.68,8.19-4.56,10.97-2.88,2.79-6.79,4.47-11.16,4.47s-8.19-1.68-11.07-4.47c-2.89-2.79-4.56-6.6-4.56-10.97v-87.71Zm132.57-.47c0-4.37,1.68-8.19,4.56-10.98,2.88-2.79,6.7-4.46,11.07-4.46s8.28,1.67,11.16,4.46c2.89,2.79,4.56,6.6,4.56,10.98v88.18c0,4.37-1.67,8.19-4.56,10.97-2.88,2.79-6.79,4.47-11.16,4.47s-8.19-1.68-11.07-4.47c-2.88-2.79-4.56-6.6-4.56-10.97v-88.18Zm138.87,60.65c4.09,0,8.09,1.39,10.98,4.09,3.07,2.98,4.56,7.07,4.56,11.07s-1.49,8.09-4.37,10.98c-12.18,12-27.44,18.04-43.35,18.04-10.79,0-21.02-3.07-29.86-8.28-8.84-5.21-16.28-12.74-21.49-21.77-5.21-8.93-8.28-19.25-8.28-30.42,0-10.51,2.88-20.84,7.91-29.86,5.02-8.93,12.28-16.56,21.21-22.05,8.93-5.49,19.63-8.65,31.25-8.65,15.63,0,30.88,5.67,42.88,17.67,2.98,2.98,4.46,6.79,4.46,10.79s-1.58,7.91-4.56,10.88c-2.98,2.98-6.98,4.65-10.98,4.65-4.09,.09-8-1.3-10.97-4.28-5.95-5.95-13.12-8.46-20.93-8.46s-14.88,3.16-20.19,8.37c-5.3,5.21-8.74,12.46-8.74,20.74,0,7.81,3.07,15.16,8.19,20.46,5.12,5.3,12.09,8.74,20.19,8.84,8.09,.28,14.7-2.32,21.11-8.65,2.88-2.7,6.88-4.19,10.97-4.19m25.76-16.37c0-16.65,6.7-31.81,17.58-42.79,10.79-10.97,25.86-17.67,42.6-17.67s31.9,6.7,42.88,17.67c10.98,10.98,17.77,26.14,17.77,42.79s-6.79,31.72-17.77,42.69c-10.97,10.98-26.14,17.77-42.88,17.77s-31.81-6.79-42.6-17.77c-10.88-10.98-17.58-25.95-17.58-42.69m31.35,0c0,8.28,3.16,15.53,8.37,20.74,5.21,5.21,12.46,8.37,20.65,8.37s15.44-3.16,20.74-8.37c5.21-5.21,8.46-12.46,8.46-20.74s-3.26-15.35-8.46-20.65c-5.3-5.21-12.56-8.56-20.74-8.56s-15.44,3.35-20.65,8.56c-5.21,5.3-8.37,12.74-8.37,20.65"/></g></svg>