<?xml version="1.0" encoding="utf-8"?>
<!-- Generator: Adobe Illustrator 26.5.1, SVG Export Plug-In . SVG Version: 6.00 Build 0)  -->
<svg version="1.1" id="Capa_1" xmlns="http://www.w3.org/2000/svg" xmlns:xlink="http://www.w3.org/1999/xlink" x="0px" y="0px"
	 viewBox="0 0 600 600" style="enable-background:new 0 0 600 600;" xml:space="preserve">
<style type="text/css">
	.st0{fill:#E30613;}
	.st1{fill:none;}
	.st2{fill:#FFFFFF;}
</style>
<g>
	<path class="st0" d="M478.6,42h49.6c16.4,0,29.8,13.3,29.8,29.8v456.4c0,16.4-13.3,29.8-29.8,29.8H71.8C55.4,558,42,544.6,42,528.2
		V71.8C42,55.4,55.4,42,71.8,42h168.7c11,0,19.8-8.9,19.8-19.8c0-11-8.9-19.8-19.8-19.8H71.8C33.5,2.3,2.3,33.5,2.3,71.8v456.4
		c0,38.3,31.2,69.5,69.5,69.5h456.4c38.3,0,69.5-31.2,69.5-69.5V71.8c0-38.3-31.2-69.5-69.5-69.5h-49.6
		c-101.6,0-202.7,58.3-237,155.2c-4.8,13.3-8.5,27-10.7,40.8c-0.8,4.9,2.1,9.7,7,11.1c5.3,1.6,10.8-1.5,12.4-6.7
		c13.9-48.5,45-92.3,87.1-119.8C378.9,55,429.1,42,478.6,42"/>
	<path class="st0" d="M91.5,266.3c0-4.1,1.6-8,4.3-11c2.7-3,6.6-4.9,11.3-4.9c4.7,0,8.8,2,12.4,5.9l51.2,56.9v-47.4
		c0-4.4,1.8-8.2,4.7-11c2.9-2.8,6.8-4.4,11.2-4.4c4.4,0,8.2,1.6,11,4.4c2.8,2.8,4.5,6.6,4.5,11V354c0,4.2-1.6,8.1-4.4,10.9
		c-2.8,2.8-6.8,4.6-11.5,4.6h-1c-4.1-0.4-7.2-2.3-9.9-6l-52.4-58V354c0,4.4-1.7,8.2-4.6,11c-2.9,2.8-6.8,4.5-11.2,4.5
		c-4.4,0-8.2-1.7-11.1-4.5c-2.9-2.8-4.6-6.6-4.6-11V266.3z M224,265.8c0-4.4,1.7-8.2,4.6-11c2.9-2.8,6.7-4.5,11.1-4.5
		c4.4,0,8.3,1.7,11.2,4.5c2.9,2.8,4.6,6.6,4.6,11V354c0,4.4-1.7,8.2-4.6,11c-2.9,2.8-6.8,4.5-11.2,4.5c-4.4,0-8.2-1.7-11.1-4.5
		c-2.9-2.8-4.6-6.6-4.6-11V265.8z M362.9,326.5c4.1,0,8.1,1.4,11,4.1c3.1,3,4.6,7.1,4.6,11.1c0,4.1-1.5,8.1-4.4,11
		c-12.2,12-27.4,18-43.3,18c-10.8,0-21-3.1-29.9-8.3c-8.8-5.2-16.3-12.7-21.5-21.8c-5.2-8.9-8.3-19.3-8.3-30.4
		c0-10.5,2.9-20.8,7.9-29.9c5-8.9,12.3-16.6,21.2-22c8.9-5.5,19.6-8.6,31.3-8.6c15.6,0,30.9,5.7,42.9,17.7c3,3,4.5,6.8,4.5,10.8
		c0,4-1.6,7.9-4.6,10.9c-3,3-7,4.6-11,4.6c-4.1,0.1-8-1.3-11-4.3c-6-6-13.1-8.5-20.9-8.5c-7.5,0-14.9,3.2-20.2,8.4
		c-5.3,5.2-8.7,12.5-8.7,20.7c0,7.8,3.1,15.2,8.2,20.5c5.1,5.3,12.1,8.7,20.2,8.8c8.1,0.3,14.7-2.3,21.1-8.6
		C354.8,328,358.8,326.5,362.9,326.5 M388.6,310.1c0-16.6,6.7-31.8,17.6-42.8c10.8-11,25.9-17.7,42.6-17.7
		c16.7,0,31.9,6.7,42.9,17.7c11,11,17.8,26.1,17.8,42.8c0,16.7-6.8,31.7-17.8,42.7c-11,11-26.1,17.8-42.9,17.8
		c-16.7,0-31.8-6.8-42.6-17.8C395.3,341.8,388.6,326.9,388.6,310.1 M420,310.1c0,8.3,3.2,15.5,8.4,20.7c5.2,5.2,12.5,8.4,20.6,8.4
		c8.2,0,15.4-3.2,20.7-8.4c5.2-5.2,8.5-12.5,8.5-20.7c0-7.9-3.3-15.3-8.5-20.6c-5.3-5.2-12.6-8.6-20.7-8.6c-8.2,0-15.4,3.3-20.6,8.6
		C423.2,294.8,420,302.2,420,310.1"/>
</g>
<rect x="-660" y="-240" class="st1" width="1920" height="1080"/>
</svg>
